<svg width="64" height="64" viewBox="0 0 64 64" fill="none" xmlns="http://www.w3.org/2000/svg">
  <defs>
    <linearGradient id="chainGradient" x1="12" y1="10" x2="52" y2="54" gradientUnits="userSpaceOnUse">
      <stop offset="0" stop-color="#00B5FF" />
      <stop offset="1" stop-color="#705CFF" />
    </linearGradient>
    <linearGradient id="lockGradient" x1="24" y1="18" x2="44" y2="44" gradientUnits="userSpaceOnUse">
      <stop offset="0" stop-color="#FFFFFF" stop-opacity="0.85" />
      <stop offset="1" stop-color="#C7E7FF" stop-opacity="0.4" />
    </linearGradient>
  </defs>
  <circle cx="32" cy="32" r="28" fill="url(#chainGradient)" />
  <path d="M21 33c0-6.2 4.8-11.2 11-11.2s11 5 11 11.2v4.8c0 4.4-3.6 8-8 8h-6c-4.4 0-8-3.6-8-8V33z" fill="url(#lockGradient)" />
  <path d="M28 22c0-2.2 1.8-4 4-4s4 1.8 4 4v2h3v-2c0-3.9-3.1-7-7-7s-7 3.1-7 7v2h3v-2z" fill="#FFFFFF" fill-opacity="0.75" />
  <path d="M25 36.5c0-2.5 2-4.5 4.5-4.5h5c2.5 0 4.5 2 4.5 4.5s-2 4.5-4.5 4.5h-5c-2.5 0-4.5-2-4.5-4.5z" stroke="#FFFFFF" stroke-width="1.4" stroke-opacity="0.9" fill="none" />
</svg>
